# This file uses centimeters as units for non-parametric coordinates.

g preda4:default1
v 0.492151 0.000000 -0.116584
v 0.169627 0.000000 0.578756
v -0.418607 0.000000 0.295847
v 0.054607 0.000000 -0.441084
v 0.341398 0.390198 -0.037681
v 0.168413 0.422935 0.523049
v -0.336286 0.422935 0.224606
v 0.001285 0.378752 -0.273093
v 0.409877 0.000000 0.282805
v -0.214674 0.000000 0.513009
v 0.339538 0.000000 -0.415454
v 0.317919 0.382068 0.320979
v 0.166906 0.207858 0.567015
v 0.499867 0.193549 -0.145809
v 0.389231 0.207858 0.280479
v -0.171514 0.474070 0.444359
v -0.395407 0.216442 0.284451
v -0.214308 0.190687 0.478897
v -0.228336 0.382068 -0.038199
v 0.081580 0.202134 -0.458812
v -0.447102 0.207056 -0.220434
v 0.220418 0.385731 -0.212240
v 0.334928 0.179241 -0.441231
v 0.215513 0.640495 0.049678
v 0.120324 0.664450 -0.055525
v 0.022027 0.715183 0.109150
v 0.161065 0.654808 0.208305
v -0.008038 0.640495 -0.072532
v -0.115841 0.679532 0.026855
v -0.182910 0.633462 0.183647
v -0.080204 0.650043 0.280416
v 0.057391 0.609114 0.322721
v -0.535418 0.000000 0.004762
v -0.253971 0.000000 -0.426813
v -0.506894 0.312022 -0.002041
v -0.276069 0.276104 -0.318395
v -0.443916 0.000000 -0.217266
v -0.542223 0.210023 0.034202
v -0.447599 0.333848 -0.184995
v -0.242213 0.177492 -0.429163
g default
v 0.130647 0.206224 0.558633
v 0.101778 0.000000 0.567148
v 0.362985 0.207858 0.314307
v 0.353295 0.000000 0.352502
v 0.356554 0.069921 0.339653
v 0.111487 0.069345 0.564286
v -0.411332 0.067880 0.292274
v -0.361064 0.000000 0.357123
v -0.383901 0.058412 0.323063
v -0.446851 0.000000 0.225469
v -0.433132 0.057724 0.241199
v -0.500384 0.000000 0.092065
v -0.503433 0.018050 0.078693
v -0.520231 0.210985 0.071690
v -0.526628 0.209536 -0.007546
v -0.509605 0.000000 -0.057864
v -0.514188 0.056425 -0.044315
v -0.250621 0.050615 -0.427484
v -0.155071 0.000000 -0.431388
v -0.203238 0.042758 -0.429596
v -0.276002 0.043968 -0.399880
v -0.288945 0.000000 -0.388237
v -0.282671 0.183330 -0.387948
v -0.259331 0.109851 -0.414328
v -0.411923 0.341693 -0.161111
v -0.021628 0.379083 -0.249656
v -0.000019 0.415355 -0.245046
v -0.019991 0.410592 -0.228306
v -0.313413 0.454328 0.218498
v 0.153496 0.447950 0.496131
v 0.323145 0.426497 -0.025013
v 0.302651 0.418364 -0.062363
v 0.322277 0.419122 0.032421
v 0.176937 0.438558 0.471163
v -0.292263 0.457271 0.252164
v 0.404963 0.049477 0.282252
v 0.493303 0.028924 -0.120952
v 0.338409 0.043896 -0.421767
v 0.111761 0.008840 -0.437193
v 0.321538 0.203392 -0.414449
v 0.483096 0.031299 -0.074363
v 0.481884 0.000000 -0.066743
v 0.110329 0.669610 -0.038775
v -0.093536 0.685300 0.040169
v -0.068305 0.657625 0.260483
v 0.142997 0.662654 0.195419
v 0.324723 0.384423 0.217057
v 0.489892 0.194840 -0.107367
v -0.232686 0.292159 -0.311310
v -0.511295 0.278674 0.022295
vt 0.945609 0.174481
vt 0.940986 0.170997
vt 0.942988 0.168882
vt 0.949753 0.172025
vt 0.937667 0.170234
vt 0.937736 0.167289
vt 0.938034 0.164053
vt 0.934197 0.096779
vt 0.935378 0.068108
vt 0.933211 0.171750
vt 0.931813 0.167658
vt 0.929139 0.173184
vt 0.927758 0.169529
vt 0.967386 0.072115
vt 0.931492 0.164442
vt 0.934421 0.184132
vt 0.938222 0.183537
vt 0.939244 0.188321
vt 0.935696 0.188182
vt 0.941250 0.181705
vt 0.943554 0.185633
vt 0.934575 0.067688
vt 0.906575 0.098296
vt 0.935387 0.191415
vt 0.938878 0.176026
vt 0.941244 0.177242
vt 0.938661 0.177352
vt 0.936540 0.178038
vt 0.934529 0.178419
vt 0.929613 0.181416
vt 0.932747 0.176875
vt 0.926226 0.177976
vt 0.930258 0.175712
vt 0.932630 0.176436
vt 0.934756 0.175520
vt 0.936709 0.174581
vt 0.948996 0.177225
vt 0.951820 0.439599
vt 0.946260 0.179901
vt 0.939392 0.449127
vt 0.949003 0.182114
vt 0.939393 0.451180
vt 0.943024 0.182449
vt 0.928496 0.439599
vt 0.942974 0.177160
vt 0.930081 0.186185
vt 0.927296 0.184667
vt 0.930819 0.188358
vt 0.968869 0.054989
vt 0.969087 0.054989
vt 0.969183 0.041428
vt 0.923572 0.173539
vt 0.924984 0.182946
vt 0.926880 0.186415
vt 0.966344 0.076133
vt 0.925450 0.189448
vt 0.965748 0.054828
vt 0.937173 0.167324
vt 0.967236 0.054989
vt 0.942368 0.168694
vt 0.943665 0.034554
vt 0.942681 0.166436
vt 0.936978 0.165199
vt 0.942107 0.040297
vt 0.940454 0.041228
vt 0.927434 0.166671
vt 0.940269 0.034554
vt 0.925899 0.167174
vt 0.965178 0.041372
vt 0.923055 0.167503
vt 0.923625 0.171261
vt 0.923886 0.184349
vt 0.934114 0.034554
vt 0.923078 0.186959
vt 0.932415 0.038758
vt 0.941471 0.034554
vt 0.931086 0.190470
vt 0.929659 0.190185
vt 0.938567 0.040229
vt 0.930042 0.187975
vt 0.930232 0.189284
vt 0.940860 0.055833
vt 0.931774 0.055296
vt 0.930667 0.065229
vt 0.930173 0.055202
vt 0.929836 0.055154
vt 0.928304 0.034554
vt 0.930429 0.038877
vt 0.930213 0.034554
vt 0.929493 0.040101
vt 0.969342 0.034554
vt 0.967588 0.034554
vt 0.969882 0.034554
vt 0.964889 0.034554
vt 0.952305 0.034554
vt 0.929784 0.034554
vt 0.932531 0.036329
vt 0.932929 0.034554
vt 0.937734 0.034554
vt 0.929367 0.034554
vt 0.930750 0.039530
vt 0.930644 0.034554
vt 0.931018 0.052003
vt 0.930719 0.045354
vt 0.930446 0.052577
vt 0.932182 0.061698
vt 0.927673 0.184138
vt 0.954683 0.464702
vt 0.978820 0.411848
vt 0.925966 0.458380
vt 0.954672 0.440793
vt 0.933941 0.183861
vt 0.934436 0.183333
vt 0.934012 0.183205
vt 0.926828 0.177639
vt 0.933087 0.088719
vt 0.937538 0.170818
vt 0.933224 0.087477
vt 0.933131 0.087430
vt 0.940345 0.181565
vt 0.944314 0.174237
vt 0.938029 0.170843
vt 0.930189 0.173383
vt 0.932397 0.088678
vt 0.932159 0.087638
vt 0.932249 0.087655
vt 0.933097 0.088536
vt 0.933530 0.087601
vt 0.933549 0.087547
vt 0.932444 0.088719
vt 0.932239 0.087412
vt 0.932217 0.087385
vt 0.931546 0.086604
vt 0.932186 0.087202
vt 0.932205 0.087200
vt 0.932011 0.087219
vt 0.932118 0.087456
vt 0.932759 0.087753
vt 0.933597 0.087456
vt 0.933660 0.087219
vt 0.933296 0.087434
vt 0.933247 0.087266
vt 0.932759 0.087240
vt 0.969693 0.039418
vt 0.944004 0.166436
vt 0.898122 0.455730
vt 0.945130 0.187992
vt 0.939986 0.190180
vt 0.936313 0.191166
vt 0.939124 0.187762
vt 0.949533 0.168770
vt 0.913947 0.457601
vt 0.935531 0.062577
vt 0.934641 0.062577
vt 0.919308 0.070334
vt 0.919532 0.062577
vt 0.905827 0.062577
vt 0.908542 0.064139
vt 0.941528 0.071320
vt 0.941768 0.062577
vt 0.913792 0.421660
vt 0.934063 0.442954
vt 0.949425 0.179793
vt 0.946250 0.182345
vt 0.942963 0.179888
vt 0.945957 0.177123
vt 0.927062 0.457420
vt 0.924683 0.455126
vt 0.926769 0.436801
vt 0.939392 0.446412
vt 0.939392 0.443397
vt 0.952203 0.427117
vt 0.954986 0.445292
vt 0.952959 0.448413
vt 0.942326 0.172007
vt 0.933540 0.087233
vt 0.949143 0.171741
vt 0.935630 0.419746
vt 0.944038 0.433136
vt 0.938261 0.419836
vt 0.931649 0.086698
vt 0.930760 0.185864
vt 0.928113 0.464401
vt 0.957805 0.430689
vt 0.921864 0.458388
vt 0.931032 0.061951
vt 0.923590 0.172787
vt 0.948306 0.412693
vt 0.904983 0.456016
vt 0.906536 0.440901
vn 0.794303 0.603959 0.065694
vn 0.888372 0.425638 0.172126
vn 0.896053 0.398037 0.196609
vn 0.794303 0.603959 0.065694
vn 0.792734 0.147964 0.591337
vn 0.794303 0.603959 0.065694
vn 0.794303 0.603959 0.065694
vn 0.783926 0.059068 0.618038
vn 0.781595 0.064085 0.620485
vn 0.794303 0.603959 0.065694
vn 0.972693 0.050761 0.226476
vn 0.977102 -0.004220 0.212729
vn 0.806493 0.200870 0.556076
vn -0.214300 0.170298 0.961808
vn 0.806493 0.200870 0.556076
vn -0.192724 0.197822 0.961106
vn -0.806210 0.190027 0.560282
vn -0.806210 0.190027 0.560282
vn -0.192724 0.197822 0.961106
vn -0.724258 0.113417 0.680137
vn -0.721245 0.118429 0.682481
vn -0.724240 0.113432 0.680154
vn -0.717896 0.123925 0.685031
vn 0.806493 0.200870 0.556076
vn -0.206973 0.126940 0.970076
vn -0.197735 0.111290 0.973917
vn 0.155201 0.748499 -0.644718
vn 0.131174 0.758342 -0.638522
vn 0.155201 0.748499 -0.644718
vn 0.583565 0.716287 -0.382603
vn 0.794303 0.603959 0.065694
vn 0.155201 0.748499 -0.644718
vn 0.155201 0.748499 -0.644718
vn 0.794303 0.603959 0.065694
vn 0.880466 -0.076068 -0.467967
vn 0.879871 -0.076839 -0.468960
vn 0.155201 0.748499 -0.644718
vn 0.155201 0.748499 -0.644718
vn 0.073199 -0.119332 -0.990152
vn 0.076032 -0.119755 -0.989888
vn 0.801523 0.553961 0.225139
vn 0.794303 0.603959 0.065694
vn 0.872784 0.472872 0.120994
vn 0.801523 0.553961 0.225139
vn 0.801523 0.553961 0.225139
vn 0.694669 0.522077 -0.494843
vn 0.691002 0.524581 -0.497324
vn 0.688227 0.521994 -0.503852
vn 0.155201 0.748499 -0.644718
vn 0.131851 0.564920 -0.814543
vn 0.022418 0.496089 -0.867982
vn 0.022418 0.496089 -0.867982
vn -0.609002 0.430661 -0.666069
vn -0.464168 0.528258 -0.710979
vn -0.464168 0.528258 -0.710979
vn -0.464168 0.528258 -0.710979
vn -0.464168 0.528258 -0.710979
vn -0.826129 0.449335 -0.340013
vn -0.882171 0.391014 -0.262455
vn -0.882171 0.391014 -0.262455
vn -0.705695 0.590367 0.391743
vn -0.658006 0.629323 0.413498
vn 0.281521 0.775672 0.564871
vn 0.624220 0.713835 0.317472
vn 0.583405 0.665870 0.465033
vn -0.615437 0.556887 0.557776
vn -0.192724 0.197822 0.961106
vn -0.043380 0.708230 0.704647
vn 0.281521 0.775672 0.564871
vn 0.801523 0.553961 0.225139
vn 0.353116 0.935227 -0.025667
vn 0.246862 0.969047 -0.002703
vn 0.355666 0.934469 -0.016417
vn -0.075318 0.926590 -0.368453
vn 0.022418 0.496089 -0.867982
vn -0.066465 0.926671 -0.369950
vn 0.246862 0.969047 -0.002703
vn 0.246862 0.969047 -0.002703
vn -0.317722 0.935833 0.152546
vn -0.882171 0.391014 -0.262455
vn -0.316832 0.935748 0.154900
vn 0.281521 0.775672 0.564871
vn 0.108612 0.897375 0.427693
vn 0.246862 0.969047 -0.002703
vn 0.111881 0.897260 0.427092
vn -0.464168 0.528258 -0.710979
vn -0.177097 0.930167 -0.321599
vn -0.125021 0.982777 -0.136089
vn -0.147755 0.933149 -0.327722
vn 0.155201 0.748499 -0.644718
vn 0.155201 0.748499 -0.644718
vn -0.137864 0.687266 -0.713203
vn -0.046188 -0.010153 -0.998881
vn -0.068815 -0.048138 -0.996467
vn 0.060355 -0.095201 -0.993627
vn -0.895783 0.027655 0.443631
vn -0.921544 0.118246 0.369831
vn -0.806210 0.190027 0.560282
vn -0.783215 0.430658 0.448449
vn -0.783224 0.430651 0.448442
vn -0.806904 0.365500 0.464020
vn -0.921550 0.118252 0.369812
vn -0.806210 0.190027 0.560282
vn -0.464168 0.528258 -0.710979
vn -0.258292 0.956239 -0.137447
vn -0.806904 0.365500 0.464020
vn -0.806904 0.365500 0.464020
vn -0.935436 0.141316 -0.324022
vn -0.921550 0.118252 0.369812
vn -0.125021 0.982777 -0.136089
vn -0.125021 0.982777 -0.136089
vn -0.571494 0.395786 -0.718852
vn -0.934336 0.225589 -0.275909
vn -0.715008 -0.021709 -0.698779
vn -0.726528 0.003075 -0.687130
vn -0.740310 0.040229 -0.671061
vn -0.921550 0.118252 0.369812
vn -0.933034 -0.005095 -0.359753
vn -0.930869 0.000694 -0.365352
vn -0.192724 0.197822 0.961106
vn -0.192724 0.197822 0.961106
vn -0.717896 0.123925 0.685031
vn -0.192724 0.197822 0.961106
vn 0.806493 0.200870 0.556076
vn 0.806493 0.200870 0.556076
vn 0.787208 0.085013 0.610800
vn 0.806493 0.200870 0.556076
vn 0.774550 0.080451 0.627376
vn 0.775804 0.082616 0.625541
vn 0.787208 0.085013 0.610800
vn -0.171872 0.061063 0.983225
vn 0.787208 0.085013 0.610800
vn -0.806210 0.190027 0.560282
vn -0.717896 0.123925 0.685031
vn -0.192724 0.197822 0.961106
vn -0.921550 0.118252 0.369812
vn -0.894008 -0.004283 0.448030
vn -0.889312 -0.016644 0.456999
vn -0.921550 0.118252 0.369812
vn -0.921548 0.118249 0.369818
vn -0.717896 0.123925 0.685031
vn -0.921551 0.118244 0.369813
vn -0.806210 0.190027 0.560282
vn -0.806210 0.190027 0.560282
vn -0.125021 0.982777 -0.136089
vn -0.934336 0.225589 -0.275909
vn -0.715008 -0.021709 -0.698779
vn -0.934336 0.225589 -0.275909
vn -0.925426 0.019034 -0.378450
vn -0.921550 0.118252 0.369812
vn -0.934336 0.225589 -0.275909
vn -0.724309 -0.001289 -0.689475
vn -0.725487 0.001244 -0.688235
vn 0.155201 0.748499 -0.644718
vn -0.137864 0.687272 -0.713198
vn -0.046231 -0.010167 -0.998879
vn -0.085199 -0.075763 -0.993479
vn -0.137864 0.687272 -0.713198
vn -0.740257 0.040169 -0.671123
vn -0.085199 -0.075763 -0.993479
vn -0.137864 0.687272 -0.713198
vn -0.125021 0.982777 -0.136089
vn -0.125021 0.982777 -0.136089
vn -0.632981 0.456558 -0.625212
vn 0.155201 0.748499 -0.644718
vn -0.288839 0.910720 -0.295232
vn 0.155201 0.748499 -0.644718
vn -0.632977 0.456535 -0.625233
vn -0.806210 0.190027 0.560282
vn -0.192724 0.197822 0.961106
vn -0.806210 0.190027 0.560282
vn 0.806493 0.200870 0.556076
vn 0.794303 0.603959 0.065694
vn 0.806493 0.200870 0.556076
vn 0.900691 0.428998 0.068679
vn 0.900699 0.428981 0.068680
vn 0.794303 0.603959 0.065694
vn 0.155201 0.748499 -0.644718
vn 0.794303 0.603959 0.065694
vn 0.155201 0.748499 -0.644718
vn 0.688227 0.521994 -0.503852
vn 0.801523 0.553961 0.225139
vn -0.615437 0.556887 0.557776
vn 0.976622 0.061243 0.206055
vn 0.967927 -0.000650 0.251230
vn 0.967927 -0.000650 0.251230
vn 0.873128 -0.047323 -0.485189
vn 0.060355 -0.095201 -0.993627
vn 0.873128 -0.047323 -0.485189
vn 0.155201 0.748499 -0.644718
vn 0.155201 0.748499 -0.644718
vn 0.155201 0.748499 -0.644718
vn 0.794303 0.603959 0.065694
vn 0.971370 0.049382 0.232382
vn 0.972460 0.054394 0.226632
vn 0.787208 0.085013 0.610800
vn 0.688227 0.521994 -0.503852
vn 0.688227 0.521994 -0.503852
vn -0.464168 0.528258 -0.710979
vn -0.464168 0.528258 -0.710979
vn -0.615437 0.556887 0.557776
vn -0.615437 0.556887 0.557776
vn 0.801523 0.553961 0.225139
vn 0.801523 0.553961 0.225139
vn 0.794303 0.603959 0.065694
vn 0.794303 0.603959 0.065694
vn 0.794303 0.603959 0.065694
vn 0.794303 0.603959 0.065694
vn -0.125021 0.982777 -0.136089
vn -0.137864 0.687272 -0.713198
s 1
g preda4:Default preda4:group16 preda3:polySurface5
f 14/178/1 87/179/2 88/180/3
s 2
f 12/14/4 43/49/5 15/50/6
s 3
f 15/50/7 43/49/8 45/51/9
s 4
f 14/8/10 81/9/11 77/22/12
s 5
f 6/55/13 41/57/14 13/59/15
s off
f 16/10/16 7/12/17 17/13/18 18/11/19
s 6
f 48/61/20 49/64/21 47/65/22 3/67/23
s 7
f 13/59/24 41/57/25 46/69/26
s 8
f 20/146/27 80/152/28 23/161/29
s 9
f 80/152/30 14/162/31 23/161/32
s 10
f 23/18/33 14/21/34 77/147/35 78/148/36
s 11
f 20/19/37 23/18/38 78/148/39 79/149/40
s 12
f 27/25/41 12/2/42 73/121/43 24/26/44
s 13
f 24/116/45 71/118/46 72/119/47
s 14
f 25/28/48 22/17/49 67/113/50 28/29/51
s 15
f 28/29/52 68/114/53 19/30/54 29/31/55
s 16
f 29/31/56 19/30/57 69/115/58 30/33/59
s 17
f 30/124/60 69/125/61 75/126/62
s 18
f 32/127/63 70/128/64 74/129/65
s 19
f 31/35/66 16/10/67 70/117/68 32/36/69
s 20
f 24/37/70 83/163/71 26/39/72 86/166/73
s 21
f 83/163/74 28/41/75 84/164/76 26/39/77
s 22
f 26/39/78 84/164/79 30/43/80 85/165/81
s 23
f 32/45/82 86/166/83 26/39/84 85/165/85
s 24
f 19/30/86 66/112/87 36/46/88 65/107/89
s 25
f 8/16/90 20/19/91 89/182/92
s 26
f 59/73/93 60/75/94 4/76/95
s 27
f 51/79/96 47/65/97 17/82/98
s 28
f 54/83/99 90/186/100 35/84/101 38/85/102
s 29
f 7/32/103 19/30/104 65/107/105 35/53/106
s 30
f 35/84/107 55/86/108 38/85/109
s 31
f 39/47/110 36/46/111 63/80/112 21/54/113
s 32
f 37/87/114 61/88/115 62/89/116
s 33
f 38/85/117 55/86/118 57/90/119
s 5
f 6/5/13 16/10/120 18/11/121 41/58/14
s 7
f 10/15/122 46/63/26 41/58/25 18/11/123
s 2
f 12/2/4 6/5/124 13/6/125 43/60/5
s 3
f 2/7/126 45/62/9 43/60/8 13/6/127
f 44/91/128 45/51/9 2/92/126
f 76/144/129 44/91/128 9/93/130
s 7
f 42/94/131 46/69/26 10/95/122
f 13/59/24 46/69/26 42/94/131 2/92/132
s 6
f 49/64/21 17/82/133 47/65/22
f 10/95/134 49/64/21 48/61/20
f 18/11/135 17/13/133 49/66/21 10/15/134
s 27
f 33/96/136 53/97/137 54/83/138 38/85/139
f 52/98/140 53/97/137 33/96/136
f 3/67/141 47/65/97 51/79/96 50/99/142
f 50/99/142 51/79/96 53/97/137 52/98/140
f 54/71/138 53/70/137 51/68/96 17/13/98
s 28
f 17/13/143 7/12/144 35/52/101
s 30
f 35/53/107 39/47/145 21/54/146 55/72/108
s 33
f 37/56/147 57/74/119 55/72/118 21/54/148
f 56/100/149 57/90/119 37/87/147
f 38/85/117 57/90/119 56/100/149 33/96/150
s 32
f 21/54/151 63/80/152 64/81/153 61/78/115 37/56/114
s 26
f 20/19/154 4/24/95 60/77/94 40/48/155
f 58/101/156 60/75/94 59/73/93 34/102/157
f 40/103/155 60/75/94 58/101/156
s 32
f 61/88/115 64/104/153 40/103/158 58/101/159
f 62/89/116 61/88/115 58/101/159 34/102/160
s 31
f 63/105/112 36/106/111 40/103/161
s 32
f 64/104/153 63/105/152 40/103/158
s 24
f 65/108/89 36/109/88 39/110/162
s 29
f 35/111/106 65/108/105 39/110/163
s 15
f 28/130/52 67/131/164 68/132/53
s 24
f 36/133/88 66/134/87 8/135/165 89/181/166
s 15
f 68/132/53 67/131/164 8/135/167 66/134/168
f 19/136/54 68/132/53 66/134/168
s 16
f 69/125/58 19/136/57 7/137/169
s 17
f 16/138/170 75/126/62 69/125/61 7/137/171
s 19
f 70/128/68 16/138/67 6/139/172
s 18
f 12/140/173 74/129/65 70/128/64 6/139/174
s 12
f 71/118/175 73/141/43 12/140/42 87/176/176 5/142/177
s 13
f 22/143/178 72/119/47 71/118/46 5/142/179
s 14
f 67/131/50 22/143/49 8/135/180
s 13
f 24/27/45 72/120/47 22/17/178 25/28/181
s 12
f 24/116/44 73/141/43 71/118/175
s 18
f 32/36/63 74/122/65 12/2/173 27/25/182
s 17
f 30/34/60 75/123/62 16/10/170 31/35/183
s 3
f 15/50/7 45/51/9 44/91/128 76/144/129
s 4
f 77/22/12 81/9/11 82/153/184 1/154/185
s 10
f 78/155/36 77/22/35 1/154/186 11/156/187
s 11
f 4/157/188 79/158/40 78/155/39 11/156/189
f 20/23/37 79/158/40 4/157/188
s 8
f 8/16/190 22/17/191 80/150/28 20/19/27
s 9
f 22/17/192 5/20/193 14/21/31 80/150/30
s 4
f 14/4/10 88/177/194 81/151/11
f 82/153/184 81/9/11 76/159/195 9/160/196
s 20
f 24/38/70 25/40/197 83/42/71
s 21
f 25/40/198 28/44/75 83/42/74
f 84/167/76 28/44/75 29/168/199
s 22
f 30/169/80 84/167/79 29/168/200
f 85/170/81 30/169/80 31/171/201
s 23
f 32/172/82 85/170/85 31/171/202
f 27/173/203 86/174/83 32/172/82
s 20
f 24/38/70 86/174/73 27/173/204
s 1
f 5/1/205 87/175/2 14/4/1
f 88/177/3 87/175/2 12/2/206 15/3/207
s 4
f 81/151/11 88/177/194 15/3/208 76/145/195
s 25
f 36/46/209 20/19/91 40/48/210
f 89/183/92 20/184/91 36/185/209
s 28
f 17/13/143 90/187/100 54/71/99
f 17/188/143 35/189/101 90/190/100
