# This file uses centimeters as units for non-parametric coordinates.

g default
v 0.109501 -0.032255 -0.513999
v -0.230795 -0.021405 -0.568274
v -0.567014 0.000000 -0.142540
v -0.567014 0.000000 0.140270
v -0.178017 0.000000 0.485334
v 0.192234 0.000000 0.455238
v 0.366964 0.525414 -0.393667
v -0.125284 0.525414 -0.491444
v -0.520037 0.525414 -0.217478
v -0.520037 0.525414 0.221925
v -0.125284 0.525414 0.495889
v 0.308553 0.517960 0.261203
v 0.435033 0.525414 -0.059057
v -0.626491 0.000000 -0.675785
v -0.900598 0.000000 -0.485550
v -0.529374 0.219566 -0.286492
v -0.364106 0.219566 -0.401190
v -0.833282 0.000000 0.479247
v -0.559175 0.000000 0.669482
v -0.385607 0.211296 0.339081
v -0.551109 0.211296 0.224221
v 0.696237 0.000000 0.481117
v 0.377325 0.000000 -0.063039
v 0.420811 0.343268 -0.093373
v 0.438890 0.197315 0.220126
v 0.641149 0.000000 -0.674196
v 0.410729 0.166934 -0.417715
v 0.138958 0.207815 0.388476
v 0.138423 0.272092 -0.426741
v -0.483053 0.178513 0.134981
v -0.480254 0.525081 0.202331
v -0.118388 0.525081 0.451862
v 0.278558 0.518293 0.238105
v 0.395250 0.525081 -0.053592
v -0.480254 0.525081 -0.197885
v 0.332852 0.525081 -0.358360
v -0.118388 0.525081 -0.447417
v -0.474535 0.561964 0.248120
v -0.165312 0.561964 0.462724
v -0.159910 0.561704 0.428236
v -0.443371 0.561704 0.232772
v 0.318428 0.555347 0.226310
v 0.420444 0.561574 -0.059080
v 0.389281 0.561314 -0.054799
v 0.294932 0.555607 0.208217
v 0.370063 0.561964 -0.355711
v 0.343342 0.561704 -0.328055
v -0.165312 0.561964 -0.458281
v -0.474535 0.561964 -0.243672
v -0.443371 0.561704 -0.228325
v -0.159910 0.561704 -0.423792
vt 0.409008 0.791781
vt 0.415887 0.785461
vt 0.415887 0.797529
vt 0.409008 0.797529
vt 0.415887 0.785461
vt 0.422766 0.785461
vt 0.422766 0.797529
vt 0.415887 0.797529
vt 0.422766 0.785461
vt 0.429645 0.789561
vt 0.429645 0.797529
vt 0.422766 0.797529
vt 0.429645 0.785461
vt 0.436524 0.785461
vt 0.436524 0.797529
vt 0.429645 0.797529
vt 0.436524 0.785461
vt 0.443403 0.790234
vt 0.443403 0.797529
vt 0.436524 0.797529
vt 0.443403 0.785461
vt 0.450282 0.797529
vt 0.443403 0.797529
vt 0.457160 0.785461
vt 0.457160 0.797529
vt 0.450282 0.797529
vt 0.457160 0.797529
vt 0.457160 0.791781
vt 0.146205 0.875188
vt 0.152988 0.913809
vt 0.137015 0.872711
vt 0.153027 0.875188
vt 0.155921 0.913173
vt 0.146517 0.870411
vt 0.173771 0.870411
vt 0.173771 0.937931
vt 0.204382 0.870411
vt 0.193091 0.882125
vt 0.187798 0.928783
vt 0.195147 0.875188
vt 0.191609 0.915320
vt 0.204534 0.872711
vt 0.177789 0.875188
vt 0.185621 0.915320
vt 0.194986 0.872711
vt 0.163563 0.875188
vt 0.163659 0.907817
vt 0.158975 0.913809
vt 0.146563 0.872711
vt 0.371913 0.879713
vt 0.361940 0.879713
vt 0.363162 0.909566
vt 0.370975 0.909566
vt 0.363543 0.879441
vt 0.372626 0.879441
vt 0.371533 0.909353
vt 0.674341 0.843289
vt 0.676883 0.843289
vt 0.675386 0.843289
vt 0.671733 0.843289
vt 0.670263 0.843289
vt 0.668629 0.843289
vt 0.667721 0.843289
vt 0.364419 0.909353
vt 0.370483 0.873625
vt 0.382141 0.879713
vt 0.382145 0.909251
vt 0.371763 0.904167
vt 0.381942 0.879441
vt 0.371324 0.873897
vt 0.372421 0.904379
vt 0.381989 0.909038
vt 0.394322 0.879713
vt 0.392935 0.909566
vt 0.393037 0.879441
vt 0.391928 0.909353
vt 0.397881 0.879713
vt 0.889503 0.916870
vt 0.869436 0.916870
vt 0.872662 0.916323
vt 0.890938 0.916323
vt 0.866321 0.840188
vt 0.888265 0.824551
vt 0.890425 0.825248
vt 0.870438 0.839491
vt 0.891536 0.902992
vt 0.918215 0.916055
vt 0.917815 0.915509
vt 0.893228 0.903538
vt 0.933023 0.840188
vt 0.891938 0.840188
vt 0.893770 0.839491
vt 0.931191 0.839491
vt 0.945943 0.916870
vt 0.943357 0.916323
vt 0.949497 0.840188
vt 0.958640 0.840188
vt 0.954523 0.839491
vt 0.946196 0.839491
vt 0.955525 0.916868
vt 0.935458 0.916868
vt 0.934023 0.916322
vt 0.952299 0.916322
vt 0.387908 0.879713
vt 0.388846 0.909564
vt 0.396659 0.909564
vt 0.387195 0.879441
vt 0.396278 0.879441
vt 0.395403 0.909352
vt 0.388288 0.909352
vn 0.157913 0.393150 -0.905812
vn 0.147183 0.400272 -0.904499
vn 0.198420 0.248780 -0.948018
vn 0.200609 0.238262 -0.950256
vn -0.308887 0.868656 -0.387332
vn -0.308887 0.868656 -0.387332
vn -0.308887 0.868656 -0.387332
vn -0.308887 0.868656 -0.387332
vn -0.924988 0.379996 0.000000
vn -0.924988 0.379996 0.000000
vn -0.974448 0.224614 0.000000
vn -0.974588 0.224006 0.000000
vn -0.301111 0.875651 0.377581
vn -0.301111 0.875651 0.377581
vn -0.301111 0.875651 0.377581
vn -0.301111 0.875651 0.377581
vn 0.413216 0.343803 0.843239
vn 0.413774 0.343442 0.843113
vn 0.495412 0.233167 0.836779
vn 0.487894 0.244872 0.837853
vn 0.836313 0.346354 -0.424994
vn 0.836440 0.345000 -0.425844
vn 0.823875 0.430267 -0.368918
vn 0.871854 0.368831 0.322233
vn 0.868245 0.386128 0.311537
vn 0.620973 0.783280 -0.029418
vn -0.748125 0.469149 0.469264
vn -0.876058 0.355632 0.325650
vn -0.780984 0.445028 0.438194
vn -0.462135 0.671277 -0.579498
vn -0.462135 0.671277 -0.579498
vn -0.462135 0.671277 -0.579498
vn -0.462135 0.671277 -0.579498
vn 0.025821 0.385601 -0.922304
vn 0.208220 0.524349 -0.825653
vn 0.174012 0.500097 -0.848306
vn 0.068644 0.659520 0.748546
vn -0.255171 0.400781 0.879922
vn -0.032019 0.591671 0.805544
vn -0.503173 0.590516 0.630958
vn -0.503173 0.590516 0.630958
vn -0.503172 0.590516 0.630958
vn -0.503173 0.590516 0.630958
vn -0.744921 0.298210 -0.596795
vn -0.778100 0.279451 -0.562554
vn -0.783283 0.276343 -0.556868
vn 0.840697 0.535528 0.080236
vn 0.774661 0.629467 0.060587
vn 0.774661 0.629467 0.060587
vn 0.852887 0.515270 0.084149
vn 0.195192 0.670099 0.716148
vn 0.125373 0.621170 0.773582
vn 0.087556 0.592362 0.800900
vn 0.195192 0.670099 0.716148
vn -0.263544 0.528935 -0.806704
vn -0.106553 0.630541 -0.768807
vn 0.046373 0.705894 -0.706798
vn 0.046373 0.705894 -0.706798
vn 0.914962 0.389283 0.106317
vn 0.914962 0.389283 0.106317
vn 0.289832 0.767982 0.571141
vn 0.359211 0.377522 0.853490
vn -0.264305 0.249260 0.931672
vn 0.836563 0.343671 -0.426677
vn 0.873737 0.358943 0.328243
vn -0.375779 0.439442 -0.815893
vn 0.079798 0.443120 -0.892904
vn 0.330699 0.603692 -0.725393
vn -0.659741 0.522790 0.539845
vn -0.924988 0.379996 0.000000
vn -0.790407 0.271986 -0.548891
vn -0.790407 0.271986 -0.548891
vn 0.008537 0.999926 0.008675
vn 0.008537 0.999926 0.008675
vn 0.008537 0.999926 0.008675
vn 0.008537 0.999926 0.008675
vn 0.000000 1.000000 0.000000
vn 0.000000 1.000000 0.000000
vn 0.000000 1.000000 0.000000
vn 0.000000 1.000000 0.000000
vn 0.000000 1.000000 0.000000
vn 0.000000 1.000000 0.000000
vn 0.000000 1.000000 0.000000
vn 0.004795 0.999964 -0.006930
vn 0.004795 0.999964 -0.006930
vn 0.004795 0.999964 -0.006930
vn 0.004795 0.999964 -0.006930
vn 0.014456 0.999883 -0.004975
vn 0.014456 0.999883 -0.004975
vn 0.014456 0.999883 -0.004975
vn 0.014456 0.999883 -0.004975
vn -0.005044 0.999788 0.019953
vn -0.005044 0.999788 0.019953
vn -0.005044 0.999788 0.019953
vn -0.005044 0.999788 0.019953
vn 0.008354 0.999965 0.000000
vn 0.008354 0.999965 0.000000
vn 0.008354 0.999965 0.000000
vn 0.008354 0.999965 0.000000
vn -0.007538 0.999968 0.002641
vn -0.007538 0.999968 0.002641
vn -0.007538 0.999968 0.002641
vn -0.007538 0.999968 0.002641
vn -0.001554 0.999968 0.007845
vn -0.001554 0.999968 0.007845
vn -0.001554 0.999968 0.007845
vn -0.001554 0.999968 0.007845
vn 0.004794 0.999964 0.006928
vn 0.004794 0.999964 0.006928
vn 0.004794 0.999964 0.006928
vn 0.004794 0.999964 0.006928
vn -0.566028 0.120147 0.815584
vn -0.566028 0.120147 0.815584
vn 0.628477 0.772295 0.092614
vn 0.628477 0.772295 0.092614
vn 0.628477 0.772295 0.092614
vn 0.628477 0.772295 0.092614
vn 0.564120 0.111851 -0.818082
vn 0.564120 0.111851 -0.818082
vn 0.564120 0.111851 -0.818082
vn 0.564120 0.111851 -0.818082
vn -0.279689 0.764460 -0.580839
vn -0.279689 0.764460 -0.580839
vn -0.279689 0.764460 -0.580839
vn -0.279689 0.764460 -0.580839
vn 0.965813 0.242300 0.092170
vn 0.910221 0.223770 0.348460
vn -0.995290 -0.016101 -0.095597
vn -0.934351 -0.018287 -0.355886
vn -0.934351 -0.018287 -0.355886
vn -0.996213 -0.015994 -0.085461
vn -0.448045 0.670375 0.591483
vn -0.448046 0.670375 0.591483
vn -0.448046 0.670375 0.591483
vn -0.448045 0.670375 0.591483
vn 0.953202 0.243860 -0.178714
vn -0.570254 0.614484 -0.545179
vn -0.570254 0.614484 -0.545179
vn -0.570254 0.614484 -0.545179
vn -0.570254 0.614484 -0.545179
vn -0.982809 -0.012579 0.184196
vn -0.982809 -0.012579 0.184196
vn -0.566032 0.120147 -0.815581
vn -0.566032 0.120147 -0.815581
vn -0.279669 0.764458 0.580852
vn -0.279669 0.764458 0.580852
vn -0.279669 0.764458 0.580852
vn -0.279669 0.764458 0.580852
vn 0.564124 0.111850 0.818079
vn 0.564124 0.111850 0.818079
vn 0.564124 0.111850 0.818079
vn 0.564124 0.111850 0.818079
vn 0.628467 0.772303 -0.092616
vn 0.628467 0.772303 -0.092616
vn 0.628467 0.772303 -0.092616
vn 0.628467 0.772303 -0.092616
s 1
g TreeStump
f 29/1/1 2/2/2 8/3/3 7/4/4
s off
f 14/5/5 15/6/6 16/7/7 17/8/8
s 2
f 3/9/9 30/10/10 10/11/11 9/12/12
s off
f 18/13/13 19/14/14 20/15/15 21/16/16
s 3
f 5/17/17 28/18/18 12/19/19 11/20/20
s 4
f 22/21/21 24/22/22 25/23/23
s 5
f 24/22/24 26/24/25 27/25/26
s 6
f 3/9/27 9/12/28 16/7/29
s 7
f 9/12/30 8/3/31 17/8/32 16/7/33
s 8
f 8/3/34 2/2/35 17/8/36
s 9
f 5/17/37 11/20/38 20/15/39
s 10
f 11/20/40 10/11/41 21/16/42 20/15/43
s 11
f 10/11/44 30/10/45 21/16/46
s 12
f 13/26/47 12/19/48 25/23/49 24/22/50
s 13
f 12/19/51 28/18/52 22/21/53 25/23/54
s 14
f 26/24/55 29/28/56 7/27/57 27/25/58
s 12
f 7/27/59 13/26/47 24/22/50 27/25/60
s 9
f 5/29/37 20/30/39 19/31/61
s 3
f 5/29/17 6/32/62 28/33/18
s 13
f 22/34/53 28/33/52 6/32/63
s 4
f 22/34/21 23/35/64 24/36/22
s 5
f 23/35/65 26/37/25 24/36/24
s 14
f 1/38/66 29/39/56 26/37/55
s 1
f 1/38/67 2/40/2 29/39/1
s 8
f 17/41/36 2/40/35 14/42/68
s 6
f 3/43/27 16/44/29 15/45/69
s 2
f 3/43/9 4/46/70 30/47/10
s 11
f 21/48/46 30/47/45 4/46/71 18/49/72
s off
f 31/57/73 32/58/74 33/59/75 34/60/76
f 35/61/77 31/57/78 34/60/79 36/62/80
f 36/62/81 37/63/82 35/61/83
f 38/78/84 39/79/85 40/80/86 41/81/87
f 11/82/88 12/83/89 33/84/90 32/85/91
f 42/86/92 43/87/93 44/88/94 45/89/95
f 9/90/96 10/91/97 31/92/98 35/93/99
f 43/87/100 46/94/101 47/95/102 44/88/103
f 7/96/104 8/97/105 37/98/106 36/99/107
f 48/100/108 49/101/109 50/102/110 51/103/111
s 10
f 10/50/41 11/51/40 39/52/112 38/53/113
s off
f 11/82/114 32/85/115 40/80/116 39/79/117
f 32/54/118 31/55/119 41/56/120 40/64/121
f 31/92/122 10/91/123 38/78/124 41/81/125
s 12
f 12/65/48 13/66/47 43/67/126 42/68/127
s 15
f 34/69/128 33/70/129 45/71/130 44/72/131
s off
f 33/84/132 12/83/133 42/86/134 45/89/135
s 12
f 13/66/47 7/73/59 46/74/136 43/67/126
s off
f 7/96/137 36/99/138 47/95/139 46/94/140
s 15
f 36/75/141 34/69/128 44/72/131 47/76/142
s 7
f 8/77/31 9/104/30 49/105/143 48/106/144
s off
f 9/90/145 35/93/146 50/102/147 49/101/148
f 35/107/149 37/108/150 51/109/151 50/110/152
f 37/98/153 8/97/154 48/100/155 51/103/156
